<?xml version="1.0" encoding="utf-8"?>
<!-- Generator: Adobe Illustrator 25.2.0, SVG Export Plug-In . SVG Version: 6.00 Build 0)  -->
<svg version="1.1" id="Layer_1" xmlns="http://www.w3.org/2000/svg" xmlns:xlink="http://www.w3.org/1999/xlink" x="0px" y="0px"
	 viewBox="0 0 1045 188" style="enable-background:new 0 0 1045 188;" xml:space="preserve">
<style type="text/css">
	.st0{fill:#2E86C1;}
	.st1{fill:#2C2C2C;}
</style>
<g>
	<path class="st0" d="M901.78,64.55c33.92,16.24,47,57.45,28.66,90.36c-0.43,0.78-0.49,1.43-0.2,2.27
		c2.76,8.17,5.47,16.36,8.21,24.53c0.36,1.08,0.61,2.11-0.35,3.01c-0.9,0.85-1.88,0.6-2.91,0.26c-7.71-2.58-15.43-5.1-23.13-7.73
		c-1.12-0.38-1.88-0.21-2.83,0.41c-15.16,9.77-31.63,13.09-49.28,9.3c-34.07-7.32-56.26-40.1-50.57-74.35
		c5.2-31.31,32.44-54.41,64.21-54.44C883.35,58.16,893,60.34,901.78,64.55z M895.41,116.79c-3.57,0.01-6.57,3.03-6.51,6.59
		c0.06,3.52,3.01,6.44,6.53,6.43c3.59,0,6.51-2.97,6.48-6.59C901.88,119.68,898.95,116.78,895.41,116.79z M852,116.79
		c-3.58,0-6.58,3.01-6.54,6.56c0.04,3.52,2.99,6.45,6.51,6.46c3.59,0.01,6.52-2.95,6.5-6.57C858.46,119.7,855.55,116.79,852,116.79z
		 M873.77,129.81c3.52-0.05,6.42-3.03,6.4-6.55c-0.02-3.57-3.04-6.52-6.62-6.46c-3.52,0.05-6.42,3.02-6.4,6.55
		C867.17,126.92,870.18,129.86,873.77,129.81z"/>
	<path class="st1" d="M23.61,66.71c3.15-3.55,6.47-6.66,10.23-9.3c6.32-4.43,13.35-6.86,21.02-7.48c7.96-0.65,15.84-0.32,23.5,2.19
		c10.65,3.49,18.34,10.44,23.6,20.22c0.14,0.26,0.27,0.52,0.42,0.78c0.05,0.08,0.14,0.13,0.16,0.15c1.71-2.32,3.26-4.78,5.15-6.94
		c8.35-9.56,19.01-14.82,31.52-16.29c8.82-1.03,17.49-0.29,25.85,2.97c10.47,4.08,18.1,11.25,23.26,21.16
		c4,7.68,5.92,15.94,6.43,24.51c0.33,5.5,0.32,11.03,0.33,16.55c0.03,22.29,0.01,44.58,0.01,66.88c0,4.14-2.24,6.38-6.38,6.38
		c-3.99,0-7.99,0-11.98,0c-3.77,0-6.04-2.28-6.04-6.09c0-24.26,0.04-48.53-0.03-72.79c-0.02-6.94-0.53-13.85-2.97-20.47
		c-3.98-10.77-11.92-16.35-23.07-17.83c-7.46-0.99-14.47,0.4-20.8,4.38c-7.16,4.5-11.07,11.41-12.63,19.51
		c-0.92,4.75-1.37,9.66-1.4,14.5c-0.14,24.12-0.06,48.23-0.06,72.35c0,4.28-2.16,6.45-6.44,6.45c-4.04,0-8.09,0.01-12.13,0
		c-3.44-0.01-5.84-2.41-5.84-5.86c0-24.76,0.04-49.52-0.03-74.27c-0.02-5.96-0.58-11.88-2.54-17.58
		c-4.1-11.94-12.57-18.33-24.98-19.59c-8.02-0.81-15.41,1.17-21.7,6.24c-5.95,4.8-9.23,11.35-10.47,18.8
		c-0.72,4.35-1.17,8.79-1.19,13.2c-0.11,24.26-0.05,48.53-0.05,72.79c0,4.08-2.21,6.27-6.31,6.27c-4.14,0-8.29,0-12.43,0
		c-3.42,0-5.73-2.18-5.96-5.62c-0.02-0.34-0.01-0.69-0.01-1.04c0-40.93,0-81.87,0-122.8c0-3.46,1.32-5.57,4.07-6.45
		c0.51-0.16,1.05-0.3,1.58-0.3c4.38,0.01,8.77-0.09,13.15,0.13c3.13,0.16,5.13,2.59,5.16,5.76C23.63,61,23.61,63.85,23.61,66.71z"/>
	<path class="st1" d="M690.48,68.69c3.21-2.91,6.3-6,9.68-8.73c8.13-6.56,17.61-9.58,27.97-10.13c7.36-0.39,14.67-0.17,21.81,1.84
		c16.09,4.52,26.64,15.01,32.5,30.44c2.69,7.09,4.14,14.49,4.18,22.07c0.14,26.13,0.14,52.27,0.17,78.4c0,3.75-2.28,5.9-6.05,5.9
		c-4.44,0-8.88,0-13.32,0c-3.37,0-5.77-2.3-5.92-5.67c-0.02-0.39,0-0.79,0-1.18c0-24.51,0.07-49.02-0.04-73.53
		c-0.03-7.97-1.64-15.64-5.84-22.59c-4.86-8.04-12.14-12.4-21.25-13.89c-6.69-1.09-13.36-0.97-19.86,1.09
		c-11.55,3.67-18.95,11.53-22.17,23.12c-1.12,4.03-1.76,8.32-1.79,12.5c-0.16,24.51-0.06,49.02-0.12,73.53
		c0,1.41-0.41,2.93-1.03,4.21c-0.83,1.71-2.49,2.42-4.41,2.42c-4.64,0-9.27,0-13.91,0c-3.41,0-5.75-2.25-5.91-5.66
		c-0.02-0.44-0.01-0.89-0.01-1.33c0-57.35,0-114.71,0-172.06c0-4.79,2.15-6.93,6.95-6.93c3.99,0,7.99-0.01,11.98,0
		c4.13,0.01,6.37,2.26,6.37,6.43c0.01,19.43,0,38.86,0,58.29C690.48,67.76,690.48,68.3,690.48,68.69z"/>
	<path class="st1" d="M322.84,69.21c3.22-3.95,6.78-7.3,10.76-10.24c7.94-5.87,16.94-8.59,26.68-9.18
		c7.25-0.44,14.45-0.19,21.55,1.59c8.66,2.18,16.15,6.43,22.32,12.85c6.68,6.95,10.62,15.41,12.89,24.7
		c1.5,6.15,2.18,12.41,2.2,18.71c0.06,24.66,0.03,49.31,0.01,73.97c0,1.02-0.11,2.08-0.39,3.06c-0.68,2.35-2.61,3.75-5.06,3.76
		c-4.54,0.02-9.07,0.01-13.61,0c-3.54,0-5.93-2.38-5.93-5.92c0-24.16,0.04-48.33-0.03-72.49c-0.02-7.27-0.96-14.41-4.08-21.12
		c-4.44-9.55-11.84-15.26-22.14-17.16c-7.72-1.42-15.41-1.26-22.82,1.61c-11.17,4.34-17.76,12.72-20.41,24.21
		c-0.87,3.75-1.32,7.69-1.34,11.54c-0.12,24.26-0.1,48.52-0.01,72.79c0.01,3.68-2.44,6.8-6.56,6.59c-4.23-0.22-8.48-0.05-12.72-0.05
		c-3.49,0-5.85-2.22-6.06-5.7c-0.02-0.39-0.01-0.79-0.01-1.18c0-40.78,0-81.56,0-122.35c0-4.82,2.21-7.03,7.06-7.04
		c3.65-0.01,7.3-0.03,10.95,0.01c4.26,0.05,6.54,2.4,6.55,6.65c0.01,3.3,0.01,6.61,0.01,9.91
		C322.66,68.81,322.72,68.89,322.84,69.21z"/>
	<path class="st1" d="M539.56,118.7c-0.09,6.52,0.05,14.14,1.75,21.64c1.48,6.53,3.93,12.6,8.79,17.41
		c5.87,5.82,13.06,8.8,21.22,9.5c5.98,0.51,11.88,0.13,17.65-1.76c6.87-2.26,12.06-6.55,15.61-12.78c1.48-2.6,2.57-5.41,3.89-8.1
		c0.6-1.23,1.25-2.45,1.98-3.6c0.89-1.4,2.28-1.98,3.9-1.99c4.73-0.02,9.47-0.06,14.2,0.01c3.48,0.06,5.57,2.73,5.33,6.17
		c-0.73,10.54-5.38,19.21-12.6,26.62c-5.91,6.07-13.09,10.26-21.14,12.8c-14.91,4.71-30.05,5.18-45.11,1.06
		c-20.21-5.52-32.55-18.99-37.93-39.07c-1.77-6.6-2.4-13.35-2.55-20.16c-0.11-4.98-0.24-9.96-0.13-14.93
		c0.2-8.76,0.82-17.48,3.49-25.93c5.97-18.89,18.39-31.27,37.56-36.32c14.76-3.89,29.64-3.6,44.26,1.07
		c7.82,2.5,14.88,6.52,20.78,12.29c7.76,7.59,12.59,16.67,13.43,27.65c0.24,3.12-2.05,5.7-5.36,5.78c-4.73,0.1-9.47,0.04-14.2,0.02
		c-1.8-0.01-3.32-0.77-4.16-2.36c-1.19-2.25-2.22-4.59-3.28-6.91c-3.15-6.83-7.47-12.59-14.53-15.85c-4.12-1.9-8.46-2.89-12.96-3.22
		c-6.35-0.46-12.61,0.07-18.55,2.53c-10.09,4.17-16.22,11.77-19.02,22.24c-1.56,5.85-2.13,11.8-2.32,17.81
		C539.49,112.74,539.56,115.16,539.56,118.7z"/>
	<path class="st1" d="M979.3,73.31c-6.85,0-13.5,0.01-20.15,0c-3.07,0-5.33-1.6-6.01-4.25c-0.13-0.52-0.17-1.07-0.17-1.6
		c-0.02-2.96,0.15-5.93-0.05-8.87c-0.22-3.24,2-6.45,6.43-6.43c6.02,0.02,12.03,0.01,18.05,0.01c0.58,0,1.16,0,1.9,0
		c0-0.73,0-1.3,0-1.88c0-13.71,0-27.42,0-41.13c0-4.32,2.34-6.69,6.64-6.7c3.8-0.01,7.59-0.01,11.39,0
		c4.13,0.02,6.52,2.42,6.52,6.52c0,13.76,0,27.52,0,41.28c0,0.58,0,1.16,0,1.91c0.72,0,1.3,0,1.88,0c9.91,0,19.82,0,29.74,0
		c2.75,0,5.1,0.74,6.27,3.49c0.36,0.84,0.54,1.8,0.56,2.71c0.07,2.91,0.04,5.82,0.02,8.73c-0.03,3.88-2.42,6.23-6.33,6.23
		c-10.11,0.01-20.22,0-30.33,0c-0.54,0-1.07,0-1.81,0c0,0.61,0,1.13,0,1.65c0,22.59-0.04,45.17,0.03,67.76
		c0.02,5.24,0.92,10.36,3.13,15.21c2.84,6.24,7.99,8.7,14.45,8.87c5.52,0.14,11.05,0.03,16.57,0.03c4.61,0,6.94,2.3,6.95,6.87
		c0.01,2.76-0.02,5.52,0.01,8.28c0.04,4.42-3.16,6.6-6.53,6.5c-6.95-0.19-13.91,0.04-20.86-0.09c-5.69-0.1-11.27-1.09-16.53-3.37
		c-8.57-3.71-14.44-10.05-17.8-18.72c-2.44-6.3-3.76-12.88-3.8-19.61c-0.15-23.81-0.14-47.63-0.19-71.44
		C979.3,74.67,979.3,74.08,979.3,73.31z"/>
	<g>
		<path class="st1" d="M232.39,120.38c0-20.46,0-40.93,0-61.39c0-4.52,2.27-6.81,6.81-6.83c3.75-0.02,7.5-0.02,11.24,0
			c4.27,0.02,6.51,2.23,6.51,6.47c0.01,41.12,0,82.25,0.01,123.37c0,3.91-2.35,6.7-6.46,6.47c-3.88-0.21-7.8-0.21-11.68,0
			c-3.71,0.2-6.5-2.59-6.46-6.55c0.09-10.9,0.03-21.79,0.03-32.69C232.39,139.61,232.39,129.99,232.39,120.38z"/>
		<path class="st0" d="M244.74,0.32c2.76,0,5.52-0.01,8.28,0c3.49,0.02,5.96,2.43,5.99,5.93c0.04,4.68,0.02,9.36,0.01,14.05
			c-0.01,3.78-2.32,6.28-6.09,6.33c-5.52,0.08-11.04,0.09-16.56,0c-3.81-0.07-6.04-2.52-6.05-6.36c-0.01-4.58-0.01-9.17,0-13.75
			c0-3.8,2.37-6.19,6.15-6.2C239.22,0.32,241.98,0.32,244.74,0.32z"/>
	</g>
	<g>
		<path class="st1" d="M481.26,120.35c0,20.61,0,41.22,0,61.84c0,2.54-0.75,4.68-3.23,5.8c-0.65,0.29-1.41,0.46-2.13,0.46
			c-4.49,0.04-8.97,0.03-13.46,0.02c-2.78-0.01-5.14-2.01-5.56-4.75c-0.13-0.87-0.17-1.77-0.17-2.65
			c-0.01-40.44-0.01-80.87,0.02-121.31c0-1.35,0.16-2.78,0.61-4.04c0.82-2.26,2.71-3.4,5.04-3.45c4.53-0.1,9.07-0.16,13.6,0.04
			c3.35,0.15,5.27,2.51,5.28,5.9c0.01,7,0,14,0,21.01C481.26,92.94,481.26,106.65,481.26,120.35z"/>
		<path class="st0" d="M469.13,0.32c2.76,0,5.52-0.01,8.28,0c3.53,0.02,5.91,2.42,5.92,5.95c0.01,4.68,0,9.36,0,14.05
			c0,3.84-2.22,6.25-6.07,6.31c-5.52,0.09-11.04,0.09-16.56,0c-3.64-0.06-5.98-2.42-6.05-6.07c-0.09-4.78-0.1-9.56,0-14.34
			c0.08-3.63,2.54-5.88,6.19-5.89C463.61,0.31,466.37,0.32,469.13,0.32z"/>
	</g>
</g>
</svg>
