<?xml version="1.0" standalone="no"?>
<!DOCTYPE svg PUBLIC "-//W3C//DTD SVG 20010904//EN"
 "http://www.w3.org/TR/2001/REC-SVG-20010904/DTD/svg10.dtd">
<svg version="1.0" xmlns="http://www.w3.org/2000/svg"
 width="523.000000pt" height="523.000000pt" viewBox="0 0 523.000000 523.000000"
 preserveAspectRatio="xMidYMid meet">
<metadata>
Created by potrace 1.14, written by Peter Selinger 2001-2017
</metadata>
<g transform="translate(0.000000,523.000000) scale(0.100000,-0.100000)"
fill="#000000" stroke="none">
<path d="M2527 5224 c-1 -1 -47 -4 -102 -8 -104 -7 -127 -9 -235 -27 -835
-139 -1556 -679 -1922 -1439 -45 -93 -107 -240 -113 -270 -2 -8 -11 -35 -20
-60 -23 -65 -72 -261 -89 -360 -13 -75 -21 -142 -32 -260 -5 -53 -5 -341 0
-370 2 -14 7 -57 10 -96 4 -39 9 -82 11 -95 3 -13 7 -40 10 -59 2 -19 16 -84
30 -145 149 -638 525 -1192 1055 -1557 345 -238 684 -371 1130 -443 131 -21
479 -27 634 -12 64 6 216 33 296 52 118 27 289 83 400 130 67 28 253 118 280
135 147 93 207 123 239 123 20 0 252 -73 516 -162 263 -88 494 -161 513 -161
43 0 82 38 82 80 0 17 -78 265 -174 551 -96 286 -173 529 -171 539 2 10 30 71
62 136 108 221 166 377 213 578 54 226 65 329 65 596 -1 253 -1 255 -36 465
-14 82 -13 81 -34 165 -9 36 -18 70 -19 75 -25 110 -116 338 -197 495 -128
246 -273 445 -469 640 -233 233 -499 415 -792 544 -21 9 -53 22 -70 30 -75 33
-310 107 -388 122 -14 3 -41 9 -60 14 -38 9 -83 17 -212 34 -100 14 -400 29
-411 20z m-655 -2381 c80 -44 130 -123 133 -213 8 -217 -236 -347 -407 -217
-175 134 -123 394 92 457 46 14 130 2 182 -27z m850 9 c199 -90 202 -365 5
-464 -115 -59 -251 -20 -325 92 -72 107 -53 244 46 331 77 68 180 83 274 41z
m877 -1 c20 -11 52 -34 70 -53 166 -169 32 -456 -204 -436 -193 17 -302 238
-194 394 76 111 217 151 328 95z"/>
</g>
</svg>
